                        <svg width="236.08000793457035" height="47.236041952396945" viewBox="0 0 369.9130434782609 74.0140098831269" class="looka-1j8o68f"><defs id="SvgjsDefs5440"></defs><g id="SvgjsG5441" featurekey="nRdZyp-0" transform="matrix(0.6330029419640735,0,0,0.6330029419640735,-9.431743593793236,-10.179265658523786)" fill="#000"><g xmlns="http://www.w3.org/2000/svg"><path d="M23.7,72.3c-0.7,0-1.3,0.6-1.3,1.3c0,0.7,0.6,1.3,1.3,1.3c0.7,0,1.3-0.6,1.3-1.3C25.1,72.9,24.4,72.3,23.7,72.3z"></path><path d="M29.8,72.3c-0.7,0-1.3,0.6-1.3,1.3c0,0.7,0.6,1.3,1.3,1.3c0.6,0,1.2-0.4,1.3-1c0-0.1,0-0.2,0-0.3     C31.1,72.9,30.5,72.3,29.8,72.3z"></path><path d="M35.8,72.3c-0.7,0-1.3,0.6-1.3,1.3c0,0.1,0,0.2,0,0.3c0.1,0.6,0.7,1,1.3,1c0.6,0,1.2-0.4,1.3-1c0-0.1,0-0.2,0-0.3     C37.2,72.9,36.6,72.3,35.8,72.3z"></path><path d="M111.8,104.8c-1.3,0-2.5,0.4-3.5,1.1L95,92.6c4.7-5.1,7.3-11.7,7.3-18.6c0-7-2.6-13.6-7.3-18.6L108.3,42     c1,0.7,2.2,1.1,3.5,1.1c1.6,0,3.1-0.6,4.2-1.8c1.1-1.1,1.8-2.6,1.8-4.2s-0.6-3.1-1.8-4.2c-1.1-1.1-2.6-1.8-4.2-1.8     c-1.6,0-3.1,0.6-4.2,1.8c-1.1,1.1-1.8,2.6-1.8,4.2c0,1.3,0.4,2.5,1.1,3.5L93.6,53.9C88.5,49.2,82,46.6,75,46.6     c-7,0-13.6,2.6-18.6,7.3L42.8,40.3c0.7-1,1.1-2.2,1.1-3.5c0-1.6-0.6-3.1-1.8-4.2c-1.1-1.1-2.6-1.8-4.2-1.8s-3.1,0.6-4.2,1.8     c-2.3,2.3-2.3,6.2,0,8.5c1.2,1.2,2.7,1.8,4.2,1.8c1.2,0,2.4-0.4,3.5-1.1l13.6,13.6c-4.7,5.1-7.3,11.7-7.3,18.6s2.6,13.6,7.3,18.6     l-12.7,12.7c0,0-0.1-0.1-0.1-0.1c-2.3-2.3-6.2-2.3-8.5,0c-2.3,2.3-2.3,6.2,0,8.5c1.1,1.1,2.6,1.8,4.2,1.8s3.1-0.6,4.2-1.8     c1.1-1.1,1.8-2.6,1.8-4.2c0-0.9-0.2-1.7-0.5-2.5l13-13c5.1,4.7,11.7,7.3,18.6,7.3c7,0,13.6-2.6,18.6-7.3l13.3,13.3     c-1.7,2.3-1.5,5.6,0.6,7.7c1.1,1.1,2.6,1.8,4.2,1.8c1.6,0,3.1-0.6,4.2-1.8c2.3-2.3,2.3-6.2,0-8.5     C114.9,105.4,113.4,104.8,111.8,104.8z M41.9,109.5c0,1.1-0.4,2.1-1.2,2.8c-1.5,1.5-4.2,1.5-5.7,0c-1.6-1.6-1.6-4.1,0-5.7     c0.8-0.8,1.8-1.2,2.8-1.2s2.1,0.4,2.8,1.2C41.5,107.4,41.9,108.4,41.9,109.5z M109,113.6c-1.6-1.6-1.6-4.1,0-5.7     c0.8-0.8,1.8-1.2,2.8-1.2c1,0,2.1,0.4,2.8,1.2c1.6,1.6,1.6,4.1,0,5.7C113.1,115.2,110.5,115.2,109,113.6z M107.8,37.1     c0-1.1,0.4-2.1,1.2-2.8c0.8-0.8,1.8-1.2,2.8-1.2c1,0,2.1,0.4,2.8,1.2c0.8,0.8,1.2,1.8,1.2,2.8s-0.4,2.1-1.2,2.8     c-0.8,0.8-1.8,1.2-2.8,1.2c-1.1,0-2.1-0.4-2.8-1.2C108.2,39.2,107.8,38.2,107.8,37.1z M37.9,32.8c1,0,2.1,0.4,2.8,1.2     c0.8,0.8,1.2,1.8,1.2,2.8s-0.4,2.1-1.2,2.8c-1.6,1.6-4.1,1.6-5.7,0c-1.6-1.6-1.6-4.1,0-5.7C35.8,33.2,36.8,32.8,37.9,32.8z      M57,91.9c-4.8-4.8-7.4-11.2-7.4-17.9S52.2,60.8,57,56c4.8-4.8,11.2-7.4,17.9-7.4c6.8,0,13.2,2.6,17.9,7.4s7.4,11.2,7.4,17.9     c0,6.8-2.6,13.2-7.4,17.9S81.8,99.3,75,99.3C68.2,99.3,61.8,96.7,57,91.9z"></path><path d="M83.1,60.2c-0.2-0.3-0.4-0.4-0.7-0.5c-0.3,0-0.6,0.1-0.8,0.3L60.3,80.9l-2.2,0.9c-0.4,0.1-0.6,0.4-0.7,0.8     c-0.1,0.4-0.1,0.7,0.1,1.1l2.3,3.9c0.2,0.3,0.5,0.6,0.9,0.6c0.1,0,0.2,0,0.2,0c0.3,0,0.6-0.1,0.8-0.3l1.8-1.5l7.1-2     c0.4,0.8,1,1.4,1.8,1.9c0.7,0.4,1.4,0.6,2.2,0.6c0.4,0,0.9-0.1,1.3-0.2l1.8-0.5c2.1-0.6,3.4-2.6,3.3-4.7L92,78.1     c0.3-0.1,0.5-0.3,0.7-0.6c0.1-0.3,0.1-0.6-0.1-0.9L83.1,60.2z M79.3,65l7.3,12.6l-23.1,6.7l-1.4-2.4L79.3,65z M61,85.8l-1.4-2.5     l0.8-0.3l1.3,2.3L61,85.8z M77.2,84.1l-1.8,0.5c-0.7,0.2-1.4,0.1-2-0.2c-0.3-0.2-0.6-0.4-0.8-0.7l6.5-1.9     C78.9,82.9,78.2,83.8,77.2,84.1z M88.6,77l-7.8-13.5l1.2-1.2l8.2,14.2L88.6,77z"></path><path d="M61.2,43.6h27.7c0.6,0,1-0.4,1-1V23.4c0-0.6-0.4-1-1-1H61.2c-0.6,0-1,0.4-1,1v19.2C60.2,43.1,60.6,43.6,61.2,43.6z      M62.2,41.6V25.7l12.2,11.1c0.2,0.2,0.4,0.3,0.7,0.3s0.5-0.1,0.7-0.3l12.2-11.1v15.9H62.2z M63.7,24.4h22.5L75,34.6L63.7,24.4z"></path><path d="M88.8,104.4H61.1c-0.6,0-1,0.4-1,1v21.2c0,0.6,0.4,1,1,1h27.7c0.6,0,1-0.4,1-1v-21.2C89.8,104.9,89.4,104.4,88.8,104.4z      M87.8,125.6H62.1v-19.2h25.7V125.6z"></path><path d="M70.3,121.7c0.2,0.1,0.3,0.1,0.5,0.1s0.3,0,0.5-0.1l8.3-4.8c0.3-0.2,0.5-0.5,0.5-0.9s-0.2-0.7-0.5-0.9l-8.3-4.8     c-0.3-0.2-0.7-0.2-1,0c-0.3,0.2-0.5,0.5-0.5,0.9v9.6C69.8,121.2,70,121.5,70.3,121.7z M71.8,112.9l5.3,3.1l-5.3,3.1V112.9z"></path><path d="M44.6,82.2V65.1c0-0.6-0.4-1-1-1H15.9c-0.6,0-1,0.4-1,1v17.2c0,0.6,0.4,1,1,1h3.9v7.3c0,0.4,0.2,0.8,0.6,0.9     c0.1,0,0.2,0.1,0.4,0.1c0.3,0,0.5-0.1,0.7-0.3l7.5-7.9h14.6C44.1,83.2,44.6,82.8,44.6,82.2z M27.9,81.5L21.8,88v-5.7     c0-0.6-0.4-1-1-1h-3.9V66.1h25.7v15.2h-14C28.3,81.2,28.1,81.3,27.9,81.5z"></path><path d="M134.1,62.3h-27.7c-0.6,0-1,0.4-1,1v21.2c0,0.6,0.4,1,1,1h27.7c0.6,0,1-0.4,1-1V63.3C135.1,62.8,134.6,62.3,134.1,62.3z      M133.1,83.5h-25.7V64.3h25.7V83.5z"></path><path d="M113.6,81.7h3c0.4,0,0.8-0.3,0.9-0.7c0.4,0.1,0.7,0.1,1.1,0.1h6c1.1,0,2-0.9,2.1-1.9c1.2-5.1,1.2-5.4,1.2-5.6     c0-0.8-0.4-1.6-1.2-1.9c-0.3-0.2-0.7-0.2-1-0.3l-3.2,0c0.1-0.9,0.2-1.8,0.1-2.8c0-0.7-0.3-1.3-0.8-1.8c-0.5-0.5-1.2-0.7-1.9-0.6     c-0.2,0-0.4,0.1-0.6,0.2l-0.4,0.2c-0.3,0.2-0.5,0.5-0.5,0.9l0,1.1c0,0.5-0.1,1-0.3,1.4c-0.2,0.5-0.5,0.9-0.8,1.2l-0.4,0.4     c-0.1-0.1-0.3-0.1-0.5-0.1h-3c-0.6,0-1,0.4-1,1v8.1C112.6,81.2,113,81.7,113.6,81.7z M118.9,72.7c0.5-0.5,0.9-1.2,1.2-1.9     c0.3-0.7,0.4-1.4,0.4-2.2l0-0.4c0.1,0.1,0.1,0.3,0.1,0.5c0,0.9,0,1.9-0.2,2.8l-0.1,0.6c-0.1,0.3,0,0.6,0.2,0.8s0.5,0.4,0.8,0.4     c0,0,0,0,0,0l4.4,0c0.1,0,0.1,0.1,0.1,0.1c0,0.4-0.6,3-1.1,5.3c0,0.1,0,0.1,0,0.2c0,0,0,0.1-0.1,0.1h-6c-0.4,0-0.7,0-1-0.1V74     L118.9,72.7z M114.6,73.6h1v0v6v0h-1V73.6z"></path></g></g><g id="SvgjsG5442" featurekey="Q4qmbg-0" transform="matrix(2.826992548781953,0,0,2.826992548781953,95.32152243533957,-12.664926672463753)" fill="#000"><path d="M4.3 14.719999999999999 l2.64 -0.28 l-1.34 -5.08 z M7.34 5.26 l3.88 14.58 l-0.64 -0.04 l-0.38 0.48 l-1.04 -0.56 l-0.66 0.58 l-0.86 -3.22 l-4.02 0.42 l-0.68 2.8 l-0.92 0.1 l-1.02 -0.72 l-0.76 0.16 l2.84 -11.56 l-1.4 0.08 l0.1 -0.68 l-0.42 -0.62 l0.5 -0.92 l-0.42 -0.46 z M16.859520833333335 8.22 c-0.86 -0.18 -1.64 0 -2.58 0.06 l0.08 8.76 c3.64 -2.28 7.84 -7.68 2.5 -8.82 z M22.099520833333333 9.7 c0.42 4.68 -5.3 9.28 -8.36 10.8 c-0.08 -0.08 -0.96 -0.34 -0.96 -0.34 l-0.2 -1.2 l-0.76 -0.16 l-0.22 -10.24 l-0.98 0.12 l0.26 -0.68 l-0.52 -0.64 l0.44 -0.78 l-0.32 -0.64 c3.46 -0.4 11.14 -1.62 11.62 3.76 z M31.459041666666664 15.18 c0.38 -1.16 -1.44 -1.72 -2.64 -1.7 c-0.88 0.02 -1.76 0.08 -2.38 0.34 l0.02 3.84 c1.84 -0.1 4.44 -0.78 5 -2.48 z M30.399041666666662 8.24 c0.26 -0.72 -2.36 -0.6 -4 -0.28 l0.02 3.02 c0.9 -0.18 3.4 -1.2 3.98 -2.74 z M34.019041666666666 15.98 c-1.22 3.9 -6.02 4.26 -8.46 4.42 c-0.08 -0.12 -0.42 -0.62 -0.42 -0.62 l-0.66 -0.22 l0.18 -0.92 l-0.68 -0.16 l-0.08 -10.18 l-0.98 0.14 l-0.04 -0.68 l-0.36 -0.36 l0.44 -1.04 l-0.46 -0.58 c2.28 -0.36 7.66 -1.34 9.76 0.28 c2.02 1.56 0.16 4.18 -1.26 5.42 c1.84 0.48 3.8 2.06 3.02 4.5 z M44.2585625 5.42 l0.6 0.2 l-3.64 7.74 l0.12 6.38 l-0.6 -0.08 l-0.7 0.34 l-0.72 -0.38 l-0.68 0.38 l-0.12 -6.46 l-4.44 -6.76 l1.26 -0.1 l0.12 -0.9 l0.88 -0.48 l3.32 5.04 l2.76 -5.86 l0.7 0.02 l0.34 1.12 z M53.51808333333333 6.119999999999999 l0.62 0.62 l-0.42 0.7 l0.26 0.72 l-3.32 0.24 l0.1 11.44 l-0.64 -0.04 l-0.62 0.38 l-0.7 -0.7 l-0.74 0.38 l-0.1 -11.26 l-2.6 0.18 l-0.28 -0.98 l0.32 -0.98 l-0.44 -0.74 l8.82 -0.62 z M63.39760416666666 17.54 l0.58 0.58 l-0.32 0.66 l0.32 0.68 l-7.2 1.22 l-0.12 -0.88 l-0.78 0 l0.14 -0.96 l-1 -0.04 l0.3 -10.32 l-0.78 0 l0.32 -0.66 l-0.52 -0.64 l0.26 -0.66 l-0.14 -0.68 l8.52 -0.42 l0.22 1.04 l-0.58 0.66 l0.36 1 l-4.96 0.24 l-0.1 3.54 l4.5 -0.54 l-0.32 0.94 l0.72 0.64 l-0.26 1.1 l-4.72 0.58 l-0.08 3.12 l5.9 -0.98 z M73.137125 5.74 l0.98 -0.28 l-0.12 14.38 l-0.68 0.16 l-0.56 -0.52 l-0.8 0.74 l-0.66 -0.36 l0.04 -4.52 l-3.56 0.32 l0.06 4.32 l-0.64 0.44 l-1.42 -0.76 l-0.64 0.42 l-0.22 -13.9 l0.66 0.24 l0.76 -0.86 l0.68 0.56 l0.6 -0.04 l0.1 6.88 l3.64 -0.34 l0.06 -7.12 l0.78 -0.52 z M84.35664583333333 5.5600000000000005 l0.22 14.36 l-0.98 -0.36 l-1.12 0.62 l-0.6 -0.22 l-0.02 -1.16 l-5.22 1.64 l-0.1 -0.86 l-0.68 -0.02 l0.12 -1.12 l-0.7 -0.06 l0.26 -12.5 l0.6 -0.38 l1.02 0.64 l1.08 -0.52 l-0.26 11.66 l3.84 -1.24 l-0.16 -10.46 l0.56 -0.24 l0.78 0.8 l0.6 -0.48 z M94.39616666666666 15.18 c0.38 -1.16 -1.44 -1.72 -2.64 -1.7 c-0.88 0.02 -1.76 0.08 -2.38 0.34 l0.02 3.84 c1.84 -0.1 4.44 -0.78 5 -2.48 z M93.33616666666667 8.24 c0.26 -0.72 -2.36 -0.6 -4 -0.28 l0.02 3.02 c0.9 -0.18 3.4 -1.2 3.98 -2.74 z M96.95616666666666 15.98 c-1.22 3.9 -6.02 4.26 -8.46 4.42 c-0.08 -0.12 -0.42 -0.62 -0.42 -0.62 l-0.66 -0.22 l0.18 -0.92 l-0.68 -0.16 l-0.08 -10.18 l-0.98 0.14 l-0.04 -0.68 l-0.36 -0.36 l0.44 -1.04 l-0.46 -0.58 c2.28 -0.36 7.66 -1.34 9.76 0.28 c2.02 1.56 0.16 4.18 -1.26 5.42 c1.84 0.48 3.8 2.06 3.02 4.5 z"></path></g><g id="SvgjsG5443" featurekey="sloganFeature-0" transform="matrix(1.1161097003931968,0,0,1.1161097003931968,95.06246728221295,50.86589601683439)" fill="#000"><path d="M8.38 18.32 l0.06 0.82 l-6.48 1.12 l-0.12 -1.02 l-1 0 l0.14 -13.36 l0.74 0.18 l1.1 -0.84 l0.86 0.4 l-0.08 11.48 l4.36 -0.62 l0.34 0.5 l-0.42 0.92 z M12.040000000000001 5.619999999999999 l0.68 -0.02 l-0.1 14.36 l-0.7 0.52 l-1.3 -0.88 l-0.7 0.4 l0.1 -14.38 l0.64 -0.42 l0.7 0.78 z M22.64 6.119999999999999 l0.62 0.62 l-0.42 0.7 l0.26 0.72 l-3.32 0.24 l0.1 11.44 l-0.64 -0.04 l-0.62 0.38 l-0.7 -0.7 l-0.74 0.38 l-0.1 -11.26 l-2.6 0.18 l-0.28 -0.98 l0.32 -0.98 l-0.44 -0.74 l8.82 -0.62 z M32.18 6.119999999999999 l0.62 0.62 l-0.42 0.7 l0.26 0.72 l-3.32 0.24 l0.1 11.44 l-0.64 -0.04 l-0.62 0.38 l-0.7 -0.7 l-0.74 0.38 l-0.1 -11.26 l-2.6 0.18 l-0.28 -0.98 l0.32 -0.98 l-0.44 -0.74 l8.82 -0.62 z M41.18000000000001 18.32 l0.06 0.82 l-6.48 1.12 l-0.12 -1.02 l-1 0 l0.14 -13.36 l0.74 0.18 l1.1 -0.84 l0.86 0.4 l-0.08 11.48 l4.36 -0.62 l0.34 0.5 l-0.42 0.92 z M51.42 17.54 l0.58 0.58 l-0.32 0.66 l0.32 0.68 l-7.2 1.22 l-0.12 -0.88 l-0.78 0 l0.14 -0.96 l-1 -0.04 l0.3 -10.32 l-0.78 0 l0.32 -0.66 l-0.52 -0.64 l0.26 -0.66 l-0.14 -0.68 l8.52 -0.42 l0.22 1.04 l-0.58 0.66 l0.36 1 l-4.96 0.24 l-0.1 3.54 l4.5 -0.54 l-0.32 0.94 l0.72 0.64 l-0.26 1.1 l-4.72 0.58 l-0.08 3.12 l5.9 -0.98 z M68.03999999999999 15.18 c0.38 -1.16 -1.44 -1.72 -2.64 -1.7 c-0.88 0.02 -1.76 0.08 -2.38 0.34 l0.02 3.84 c1.84 -0.1 4.44 -0.78 5 -2.48 z M66.98 8.24 c0.26 -0.72 -2.36 -0.6 -4 -0.28 l0.02 3.02 c0.9 -0.18 3.4 -1.2 3.98 -2.74 z M70.6 15.98 c-1.22 3.9 -6.02 4.26 -8.46 4.42 c-0.08 -0.12 -0.42 -0.62 -0.42 -0.62 l-0.66 -0.22 l0.18 -0.92 l-0.68 -0.16 l-0.08 -10.18 l-0.98 0.14 l-0.04 -0.68 l-0.36 -0.36 l0.44 -1.04 l-0.46 -0.58 c2.28 -0.36 7.66 -1.34 9.76 0.28 c2.02 1.56 0.16 4.18 -1.26 5.42 c1.84 0.48 3.8 2.06 3.02 4.5 z M74.08 5.619999999999999 l0.68 -0.02 l-0.1 14.36 l-0.7 0.52 l-1.3 -0.88 l-0.7 0.4 l0.1 -14.38 l0.64 -0.42 l0.7 0.78 z M84.67999999999999 6.119999999999999 l0.62 0.62 l-0.42 0.7 l0.26 0.72 l-3.32 0.24 l0.1 11.44 l-0.64 -0.04 l-0.62 0.38 l-0.7 -0.7 l-0.74 0.38 l-0.1 -11.26 l-2.6 0.18 l-0.28 -0.98 l0.32 -0.98 l-0.44 -0.74 l8.82 -0.62 z M94.82 17.14 c-1.02 2.5 -3.68 3.3 -5.4 3.3 c-2.46 0 -4.44 -1.3 -5 -1.74 l0.22 -0.64 l0.58 -0.4 l-0.46 -0.76 l0.46 -0.68 c0.76 0.6 2.14 1.52 4.12 1.52 c1.54 0 3.18 -0.98 3.38 -2.52 c-1.96 -1.02 -7.1 0.24 -7.58 -3.02 c-0.4 -2.7 4.48 -6.8 6.36 -7.18 l0.28 0.68 l0.74 0.04 l0.24 0.62 l0.68 0.38 l-0.08 3.78 l-0.88 0.3 l-1.06 -0.7 l-0.58 0.32 l0.06 -2.26 c-1.28 0.52 -2.36 1.8 -3.12 3.5 c1.54 0.48 4.38 0.36 6.1 1.22 c1.28 0.64 1.96 1.76 0.94 4.24 z M111.47999999999999 15.18 c0.38 -1.16 -1.44 -1.72 -2.64 -1.7 c-0.88 0.02 -1.76 0.08 -2.38 0.34 l0.02 3.84 c1.84 -0.1 4.44 -0.78 5 -2.48 z M110.42 8.24 c0.26 -0.72 -2.36 -0.6 -4 -0.28 l0.02 3.02 c0.9 -0.18 3.4 -1.2 3.98 -2.74 z M114.03999999999999 15.98 c-1.22 3.9 -6.02 4.26 -8.46 4.42 c-0.08 -0.12 -0.42 -0.62 -0.42 -0.62 l-0.66 -0.22 l0.18 -0.92 l-0.68 -0.16 l-0.08 -10.18 l-0.98 0.14 l-0.04 -0.68 l-0.36 -0.36 l0.44 -1.04 l-0.46 -0.58 c2.28 -0.36 7.66 -1.34 9.76 0.28 c2.02 1.56 0.16 4.18 -1.26 5.42 c1.84 0.48 3.8 2.06 3.02 4.5 z M117.52 5.619999999999999 l0.68 -0.02 l-0.1 14.36 l-0.7 0.52 l-1.3 -0.88 l-0.7 0.4 l0.1 -14.38 l0.64 -0.42 l0.7 0.78 z M131.44 12.46 l0.56 0.66 l-0.32 0.68 l0 0.72 l-0.9 0.22 l-0.02 4.08 c-4.72 3.06 -9.68 1.86 -10.8 -1.52 c-1.24 -3.74 2.4 -10.6 7.92 -12.7 l0.48 0.48 l0.68 -0.04 l0.24 0.94 l0.74 -0.2 l-0.3 4.12 l-0.64 -0.08 l-0.68 0.54 l-0.74 -0.78 l-0.66 0.48 l0.08 -2.12 c-3.38 2.5 -5.2 6.18 -4.64 8.3 c0.44 1.68 3.38 2.02 5.6 1 l0.1 -2.38 l-2.82 0.22 l-0.3 -0.8 l0.58 -1.3 l-0.34 -0.6 l6.44 -0.66 z M150.20000000000002 17.66 l0.2 0.64 c-4.54 3.32 -9.54 2.52 -10.84 -0.8 c-1.44 -3.66 1.56 -10.28 6.96 -12.68 l0.44 0.66 l1.1 -0.12 l0.66 0.54 l-0.32 5.54 l-0.58 0.18 l-0.74 -0.26 l-0.68 0.5 l-0.7 -0.1 l0.2 -3.54 c-3.22 2.68 -4.58 6.02 -3.92 8.1 c0.62 1.96 4.26 1.62 6.82 -0.2 l0.6 0.24 l-0.2 1.1 z M158.46 18.32 l0.06 0.82 l-6.48 1.12 l-0.12 -1.02 l-1 0 l0.14 -13.36 l0.74 0.18 l1.1 -0.84 l0.86 0.4 l-0.08 11.48 l4.36 -0.62 l0.34 0.5 l-0.42 0.92 z M162.12 5.619999999999999 l0.68 -0.02 l-0.1 14.36 l-0.7 0.52 l-1.3 -0.88 l-0.7 0.4 l0.1 -14.38 l0.64 -0.42 l0.7 0.78 z M175.42000000000002 17.66 l0.2 0.64 c-4.54 3.32 -9.54 2.52 -10.84 -0.8 c-1.44 -3.66 1.56 -10.28 6.96 -12.68 l0.44 0.66 l1.1 -0.12 l0.66 0.54 l-0.32 5.54 l-0.58 0.18 l-0.74 -0.26 l-0.68 0.5 l-0.7 -0.1 l0.2 -3.54 c-3.22 2.68 -4.58 6.02 -3.92 8.1 c0.62 1.96 4.26 1.62 6.82 -0.2 l0.6 0.24 l-0.2 1.1 z M185.14000000000001 6.140000000000001 l0.68 0.46 l-4.02 5.12 l3.48 8.04 l-0.92 0.74 l-1.02 -0.5 l-0.58 0.74 l-2.86 -6.6 l-1.08 1.36 l0 4.38 l-0.9 -0.32 l-0.9 0.92 l-0.9 -0.42 l0 -14.02 l0.46 -0.48 l0.84 0.74 l0.62 -0.56 l0.78 0.12 l0 5.28 l4.86 -6.18 l0.2 0.64 l1.06 -0.36 z M196.68 17.14 c-1.02 2.5 -3.68 3.3 -5.4 3.3 c-2.46 0 -4.44 -1.3 -5 -1.74 l0.22 -0.64 l0.58 -0.4 l-0.46 -0.76 l0.46 -0.68 c0.76 0.6 2.14 1.52 4.12 1.52 c1.54 0 3.18 -0.98 3.38 -2.52 c-1.96 -1.02 -7.1 0.24 -7.58 -3.02 c-0.4 -2.7 4.48 -6.8 6.36 -7.18 l0.28 0.68 l0.74 0.04 l0.24 0.62 l0.68 0.38 l-0.08 3.78 l-0.88 0.3 l-1.06 -0.7 l-0.58 0.32 l0.06 -2.26 c-1.28 0.52 -2.36 1.8 -3.12 3.5 c1.54 0.48 4.38 0.36 6.1 1.22 c1.28 0.64 1.96 1.76 0.94 4.24 z"></path></g></svg>
